<?xml version="1.0" standalone="no"?>
<!DOCTYPE svg PUBLIC "-//W3C//DTD SVG 20010904//EN"
 "http://www.w3.org/TR/2001/REC-SVG-20010904/DTD/svg10.dtd">
<svg version="1.0" xmlns="http://www.w3.org/2000/svg"
 width="97.000000pt" height="107.000000pt" viewBox="0 0 97.000000 107.000000"
 preserveAspectRatio="xMidYMid meet">

<g transform="translate(0.000000,107.000000) scale(0.100000,-0.100000)"
fill="#000000" stroke="none">
<path d="M0 960 c0 -81 3 -110 13 -110 9 0 9 -2 -1 -8 -9 -6 -12 -33 -10 -98
l3 -89 13 44 c11 36 11 45 0 52 -7 5 -8 9 -2 9 6 0 11 6 11 13 0 6 6 50 13 97
6 47 12 96 13 110 3 40 31 31 35 -10 2 -19 8 -40 13 -46 6 -8 5 -14 -5 -17
-17 -7 -18 -48 -1 -59 6 -5 5 -11 -5 -18 -12 -7 -12 -12 -2 -22 9 -9 15 -8 26
7 13 18 14 17 14 -10 0 -16 -8 -35 -17 -42 -9 -7 -11 -13 -4 -13 6 0 18 -3 26
-6 12 -4 14 0 10 15 -4 17 -1 21 18 20 18 -1 20 -2 6 -6 -19 -5 -17 -30 2 -26
6 2 11 -6 11 -16 0 -11 6 -22 13 -25 6 -4 -4 -4 -23 -1 -18 3 -37 11 -41 17
-4 6 -17 13 -28 15 -17 2 -21 -2 -21 -26 0 -26 3 -30 29 -29 15 1 34 -3 41 -7
8 -5 11 -4 7 2 -5 7 7 11 31 11 20 0 40 -5 44 -11 5 -8 8 -6 8 5 0 11 5 15 15
12 10 -4 15 -21 15 -54 0 -27 5 -52 10 -55 17 -11 11 -20 -24 -39 -21 -11 -42
-15 -55 -11 -12 4 -27 2 -34 -3 -7 -6 -34 -16 -60 -23 -38 -9 -47 -15 -41 -28
3 -9 11 -54 16 -101 5 -47 14 -99 19 -116 11 -37 12 -118 2 -128 -5 -4 -9 -12
-9 -17 -1 -5 -3 -11 -4 -14 -1 -3 -4 -9 -5 -15 -1 -5 -3 -11 -4 -12 -1 -2 -4
-20 -6 -40 l-4 -38 169 0 170 0 -21 52 c-13 33 -25 91 -30 153 -4 55 -10 122
-13 149 l-5 49 27 -26 c30 -29 72 -47 108 -47 28 0 33 16 7 23 -14 4 -12 5 4
6 13 0 40 16 60 35 21 18 44 31 51 29 7 -3 12 4 12 15 0 11 3 28 7 37 5 14 2
16 -15 10 -19 -5 -22 -2 -22 20 0 21 -4 25 -22 24 -47 -4 -61 0 -49 15 9 11 6
12 -15 8 -15 -3 -29 1 -34 8 -11 17 -2 121 12 137 6 7 9 15 7 16 -38 24 -88
45 -104 44 -15 -2 -20 4 -20 27 -1 15 5 30 12 33 8 3 11 13 8 24 -10 31 31 47
115 44 98 -3 138 -12 150 -35 6 -10 11 -52 11 -92 1 -40 4 -62 6 -48 2 14 7
32 10 40 3 8 5 18 5 23 -1 4 8 7 20 7 22 1 23 1 3 13 -22 13 -33 47 -15 47 6
0 8 -5 5 -11 -4 -6 2 -13 14 -16 27 -7 27 -39 1 -46 -11 -3 -20 -11 -20 -18 0
-10 3 -10 12 -1 7 7 16 12 20 12 13 0 9 -28 -4 -33 -7 -3 -1 -6 15 -6 30 -1
36 -15 10 -26 -17 -6 -17 -7 0 -19 20 -15 23 -48 5 -45 -28 3 -42 -3 -20 -9
21 -7 22 -8 7 -27 -14 -18 -16 -18 -28 -4 -6 9 -23 19 -37 24 -25 7 -25 7 -5
-10 11 -9 15 -14 8 -11 -6 4 -14 2 -18 -4 -3 -5 0 -10 7 -10 10 0 10 -2 -1 -9
-10 -7 -11 -13 -2 -27 10 -18 10 -18 11 1 1 17 3 16 11 -5 6 -14 17 -28 25
-33 17 -10 11 -43 -22 -109 -13 -26 -23 -53 -22 -59 7 -28 -23 -17 -35 13
l-15 33 -12 -30 c-6 -16 -20 -85 -29 -151 -12 -82 -25 -131 -38 -150 -11 -16
-23 -35 -27 -42 -6 -9 28 -12 155 -12 l161 0 -5 27 c-28 134 -29 145 -19 235
6 51 17 113 26 138 13 39 13 46 0 53 -8 4 -12 12 -9 18 4 5 1 9 -4 9 -7 0 -7
7 1 21 11 17 10 22 -4 33 -10 7 -15 16 -11 19 3 4 2 7 -4 7 -13 0 -28 114 -18
131 6 8 10 8 16 -2 5 -9 9 -10 9 -2 0 6 9 9 20 6 13 -3 20 -14 20 -29 0 -18
-4 -22 -17 -18 -17 5 -17 5 0 -9 9 -8 17 -27 18 -43 0 -16 3 -22 6 -14 17 52
36 80 52 80 10 0 24 7 31 15 15 18 -2 27 -40 23 -35 -4 -41 38 -8 52 17 7 7 8
-39 6 -50 -3 -63 0 -68 12 -5 14 -7 14 -15 2 -6 -9 -10 -10 -10 -3 0 6 -3 20
-6 30 -4 13 -3 14 3 5 6 -7 20 -14 31 -15 12 -1 22 -6 22 -12 0 -5 4 -3 10 5
5 8 5 21 0 30 -6 10 -2 22 11 36 27 28 32 83 14 128 -18 41 -18 46 -6 46 5 0
11 -10 14 -22 2 -13 3 -2 3 24 l-1 47 -285 0 -286 0 -47 -46 c-57 -55 -60 -73
-12 -67 24 3 35 0 35 -8 0 -10 2 -10 8 -1 4 7 17 11 29 10 18 -1 20 -4 11 -15
-9 -10 -24 -12 -57 -7 -37 5 -43 4 -34 -6 7 -7 26 -12 43 -11 16 0 30 -3 30
-8 0 -5 -7 -6 -17 -3 -10 4 -14 2 -10 -4 3 -5 0 -10 -8 -10 -8 0 -15 4 -15 9
0 4 -6 8 -14 8 -8 0 -17 7 -20 16 -4 9 -13 14 -22 10 -10 -4 -13 -2 -8 7 5 9
4 9 -7 0 -19 -19 -40 -16 -32 4 4 11 3 14 -5 9 -7 -4 -12 -2 -12 4 0 6 8 9 18
6 12 -4 34 10 72 49 l55 56 -75 -3 c-53 -2 -74 -7 -73 -15 2 -7 -2 -13 -7 -13
-5 0 -10 8 -10 18 0 14 -2 15 -10 2 -6 -10 -10 -11 -10 -2 0 7 -13 12 -30 12
l-30 0 0 -110z m430 90 c27 -17 -4 -23 -97 -21 -53 1 -57 18 -5 24 70 7 87 7
102 -3z m254 -31 c15 -6 -1 -8 -50 -6 -39 2 -79 9 -90 16 -15 10 -6 11 50 6
38 -4 79 -11 90 -16z m4 -46 c-10 -2 -28 -2 -40 0 -13 2 -5 4 17 4 22 1 32 -1
23 -4z m99 1 c-3 -3 -12 -4 -19 -1 -8 3 -5 6 6 6 11 1 17 -2 13 -5z m-93 -46
c-6 -10 -4 -10 7 -2 8 6 28 10 44 9 17 -1 41 -3 54 -4 41 -2 15 -13 -36 -16
-26 -1 -59 -4 -73 -5 l-25 -2 25 -8 25 -8 -24 -1 c-20 -1 -50 22 -51 39 0 3
14 7 31 8 22 2 28 -1 23 -10z m-477 -54 c-3 -3 -12 -4 -19 -1 -8 3 -5 6 6 6
11 1 17 -2 13 -5z m-55 -46 c3 -8 13 -7 37 5 37 19 51 15 51 -13 0 -23 -17
-35 -33 -22 -7 5 -28 8 -47 6 -25 -3 -31 -1 -20 6 12 8 13 10 1 10 -8 0 -11 3
-8 7 4 3 -1 12 -11 20 -15 13 -15 13 5 4 12 -6 23 -16 25 -23z m598 -5 c0 5 5
5 10 2 6 -4 8 -11 4 -16 -7 -12 -34 8 -34 25 0 6 5 4 10 -4 5 -8 10 -11 10 -7z
m-510 -65 c0 -5 -4 -7 -9 -3 -14 8 -21 -9 -10 -25 6 -11 9 -12 9 -2 0 7 5 10
10 7 6 -3 10 -12 10 -18 0 -18 -40 -19 -47 -1 -3 7 -9 11 -14 8 -14 -8 -10 5
8 30 17 22 43 25 43 4z m186 -121 c4 -3 -5 -20 -20 -37 -14 -18 -24 -36 -20
-41 3 -5 -1 -9 -8 -10 -7 0 -22 -2 -33 -3 -17 -2 -20 4 -22 38 -1 23 -1 46 1
51 4 11 91 13 102 2z m9 -46 c3 -5 1 -12 -5 -16 -5 -3 -10 1 -10 9 0 18 6 21
15 7z m68 -88 c-7 -2 -21 -2 -30 0 -10 3 -4 5 12 5 17 0 24 -2 18 -5z m42 -24
c12 -19 -16 -67 -46 -80 -24 -9 -35 -9 -54 1 -27 15 -24 30 6 30 25 0 59 17
59 30 0 6 -10 10 -22 10 -19 0 -20 2 -8 10 20 13 57 13 65 -1z m-368 -76 c-3
-10 -5 -4 -5 12 0 17 2 24 5 18 2 -7 2 -21 0 -30z m533 12 c0 -7 -7 -40 -15
-72 -9 -34 -15 -107 -16 -183 -1 -103 -3 -118 -11 -85 -16 65 12 355 34 355 4
0 8 -7 8 -15z m-530 -338 c-8 -25 -9 -14 -5 53 3 47 6 123 7 170 2 56 3 38 5
-53 2 -75 -1 -152 -7 -170z m257 277 c-3 -3 -12 -4 -19 -1 -8 3 -5 6 6 6 11 1
17 -2 13 -5z"/>
<path d="M860 1030 c0 -22 3 -40 8 -40 4 0 5 -23 4 -50 -4 -44 -1 -53 20 -70
14 -10 30 -37 37 -59 7 -24 18 -41 26 -41 13 0 15 25 15 150 l0 150 -55 0 -55
0 0 -40z m75 20 c3 -5 1 -10 -4 -10 -6 0 -11 5 -11 10 0 6 2 10 4 10 3 0 8 -4
11 -10z m14 -123 c-2 -2 -12 -9 -21 -16 -15 -11 -18 -11 -18 1 0 7 10 14 21
15 12 1 20 1 18 0z"/>
<path d="M926 745 c4 -8 10 -12 15 -9 11 6 2 24 -11 24 -5 0 -7 -7 -4 -15z"/>
<path d="M533 733 c-40 -20 -40 -24 -8 -59 23 -24 27 -26 43 -12 9 8 25 18 35
21 40 15 27 68 -17 66 -11 0 -36 -8 -53 -16z m81 -22 c4 -5 -3 -7 -14 -4 -23
6 -26 13 -6 13 8 0 17 -4 20 -9z"/>
<path d="M1 634 c0 -11 3 -14 6 -6 3 7 2 16 -1 19 -3 4 -6 -2 -5 -13z"/>
<path d="M98 523 c7 -3 16 -2 19 1 4 3 -2 6 -13 5 -11 0 -14 -3 -6 -6z"/>
</g>
</svg>
